<svg width="21" height="21" viewBox="0 0 21 21" fill="none" xmlns="http://www.w3.org/2000/svg">
<path d="M8.14039 0.879529C9.43009 -0.145125 11.2377 -0.185746 12.567 0.757667L12.7305 0.879529L18.914 5.8261C19.5944 6.35315 20.0118 7.13612 20.0828 7.98813L20.093 8.19225V16.4271C20.093 18.5495 18.4164 20.2759 16.3153 20.3876H14.2944C13.3287 20.3683 12.5477 19.6168 12.4766 18.6724L12.4665 18.5292V15.6258C12.4665 15.31 12.2319 15.047 11.9181 14.9952L11.8267 14.985H9.11427C8.79032 14.9952 8.52629 15.2288 8.48567 15.5334L8.47551 15.6258V18.52C8.47551 18.58 8.46434 18.651 8.4552 18.7018L8.44504 18.7231L8.43387 18.7932C8.31303 19.6574 7.60217 20.3165 6.71867 20.3784L6.58665 20.3876H4.76888C2.64645 20.3876 0.909924 18.7231 0.798218 16.6302V8.19225C0.807357 7.32805 1.18411 6.52579 1.81373 5.96726L8.14039 0.879529ZM11.847 1.98644C11.0752 1.36698 9.97847 1.33753 9.16606 1.87473L9.01272 1.98644L2.83839 6.96348C2.48397 7.2265 2.27071 7.62255 2.21994 8.03891L2.20877 8.20139V16.4271C2.20877 17.7777 3.2649 18.8846 4.6064 18.9659H6.58665C6.81007 18.9659 7.00301 18.8145 7.03246 18.6013L7.05379 18.4185L7.06394 18.3667V15.6258C7.06394 14.5392 7.89667 13.6557 8.96296 13.5735H11.8267C12.9123 13.5735 13.7958 14.4072 13.878 15.4735V18.5292C13.878 18.7424 14.0304 18.9262 14.2335 18.9659H16.1213C17.4821 18.9659 18.589 17.9209 18.6703 16.5895L18.6814 16.4271V8.20139C18.6703 7.76574 18.4885 7.35851 18.1737 7.05487L18.0417 6.94215L11.847 1.98644Z" fill="white"/>
</svg>
