<svg width="14" height="14" viewBox="0 0 14 14" fill="none" xmlns="http://www.w3.org/2000/svg">
<path d="M6.76124 0.367676C8.27133 0.367676 9.50385 1.55706 9.57305 3.05006L9.57612 3.18256V3.77473C9.57612 4.03763 9.36299 4.25075 9.10009 4.25075C8.8591 4.25075 8.65994 4.07167 8.62842 3.83932L8.62407 3.77473V3.18256C8.62407 2.19059 7.84846 1.37955 6.87068 1.32288L6.76124 1.31972H3.66709C2.67566 1.31972 1.86471 2.0954 1.80805 3.07312L1.80489 3.18256V10.2467C1.80489 11.2386 2.58043 12.0497 3.5577 12.1064L3.66709 12.1096H6.76758C7.75603 12.1096 8.56444 11.3368 8.62092 10.3627L8.62407 10.2537V9.65519C8.62407 9.39229 8.83719 9.17917 9.10009 9.17917C9.34109 9.17917 9.54025 9.35825 9.57177 9.5906L9.57612 9.65519V10.2537C9.57612 11.7587 8.39126 12.9874 6.90363 13.0584L6.76758 13.0616H3.66709C2.1575 13.0616 0.925099 11.8721 0.855908 10.3792L0.852844 10.2467V3.18256C0.852844 1.67258 2.04211 0.439944 3.53463 0.37074L3.66709 0.367676H6.76124ZM11.8357 4.48106L11.8892 4.52703L13.7476 6.37717C13.7643 6.39377 13.779 6.41067 13.7924 6.42855L13.7476 6.37717C13.767 6.39647 13.7843 6.41703 13.7997 6.43858C13.8106 6.45366 13.8206 6.46959 13.8296 6.48611C13.8313 6.48933 13.8329 6.49248 13.8346 6.49565C13.8426 6.51087 13.8497 6.52665 13.856 6.54287C13.8586 6.54997 13.8612 6.55715 13.8636 6.56437C13.8682 6.57772 13.8721 6.59146 13.8754 6.60543C13.8769 6.6129 13.8784 6.62031 13.8798 6.62774C13.8824 6.64072 13.8843 6.6541 13.8856 6.66765C13.8864 6.67708 13.887 6.68642 13.8874 6.69576C13.8878 6.70203 13.8879 6.70829 13.8879 6.71458L13.8874 6.73256C13.887 6.74232 13.8864 6.75208 13.8854 6.76182L13.8879 6.71458C13.8879 6.74431 13.8852 6.77341 13.88 6.80163C13.8784 6.80868 13.8769 6.81612 13.8752 6.82352C13.872 6.83824 13.8679 6.85249 13.8632 6.86645C13.8608 6.87295 13.8584 6.87952 13.8559 6.88604C13.85 6.90183 13.8431 6.91712 13.8355 6.93196C13.8336 6.93531 13.8316 6.93907 13.8296 6.9428C13.8077 6.98299 13.7804 7.01933 13.7485 7.05118L13.7476 7.05181L11.8892 8.90258C11.703 9.0881 11.4016 9.08748 11.216 8.9012C11.0474 8.73185 11.0326 8.46737 11.1712 8.2813L11.2174 8.228L12.2577 7.19003L5.76952 7.1906C5.50662 7.1906 5.2935 6.97748 5.2935 6.71458C5.2935 6.47359 5.47258 6.27442 5.70493 6.2429L5.76952 6.23856L12.259 6.23799L11.2175 5.20172C11.0481 5.0331 11.0321 4.76868 11.17 4.58202L11.216 4.52853C11.3846 4.35915 11.649 4.3432 11.8357 4.48106Z" fill="#1F1D2B"/>
</svg>
