<svg width="16" height="17" viewBox="0 0 16 17" fill="none" xmlns="http://www.w3.org/2000/svg">
<path d="M11.8809 9.90355C13.198 9.90355 14.2688 10.9605 14.2688 12.2607C14.2688 13.5601 13.198 14.6178 11.8809 14.6178C10.5637 14.6178 9.49296 13.5601 9.49296 12.2607C9.49296 10.9605 10.5637 9.90355 11.8809 9.90355ZM11.8809 11.0091C11.1812 11.0091 10.613 11.57 10.613 12.2607C10.613 12.9506 11.1812 13.5122 11.8809 13.5122C12.5805 13.5122 13.1488 12.9506 13.1488 12.2607C13.1488 11.57 12.5805 11.0091 11.8809 11.0091ZM6.727 11.7077C7.03613 11.7077 7.28702 11.9553 7.28702 12.2604C7.28702 12.5656 7.03613 12.8132 6.727 12.8132H2.13561C1.82648 12.8132 1.5756 12.5656 1.5756 12.2604C1.5756 11.9553 1.82648 11.7077 2.13561 11.7077H6.727ZM3.96298 2.55854C5.28014 2.55854 6.3509 3.61622 6.3509 4.91565C6.3509 6.21509 5.28014 7.27277 3.96298 7.27277C2.64657 7.27277 1.57507 6.21509 1.57507 4.91565C1.57507 3.61622 2.64657 2.55854 3.96298 2.55854ZM3.96298 3.66413C3.26408 3.66413 2.69511 4.22577 2.69511 4.91565C2.69511 5.60554 3.26408 6.16718 3.96298 6.16718C4.66263 6.16718 5.23086 5.60554 5.23086 4.91565C5.23086 4.22577 4.66263 3.66413 3.96298 3.66413ZM13.709 4.36301C14.0181 4.36301 14.269 4.61066 14.269 4.9158C14.269 5.22094 14.0181 5.4686 13.709 5.4686H9.11686C8.80773 5.4686 8.55684 5.22094 8.55684 4.9158C8.55684 4.61066 8.80773 4.36301 9.11686 4.36301H13.709Z" fill="white"/>
</svg>
