<svg width="16" height="16" viewBox="0 0 16 16" fill="none" xmlns="http://www.w3.org/2000/svg">
<path d="M8.29755 1.98591C8.74756 1.98573 9.17848 2.16401 9.49216 2.48015C9.80583 2.79629 9.97554 3.22336 9.96188 3.62194L9.96727 3.71568C9.97822 3.80799 10.0089 3.89708 10.0586 3.9792C10.1556 4.14113 10.3142 4.25864 10.4997 4.30581C10.6851 4.35299 10.8821 4.32596 11.0687 4.21902L11.1726 4.16641C11.9533 3.80684 12.8896 4.09258 13.3226 4.82889L13.7118 5.49054C13.722 5.50798 13.7311 5.52601 13.7389 5.54449L13.775 5.61537C14.1231 6.34322 13.8754 7.209 13.2141 7.64885L13.0508 7.74939C12.9654 7.8077 12.8943 7.88388 12.8407 7.9754C12.7441 8.13797 12.7175 8.33158 12.767 8.51336C12.8165 8.69515 12.9379 8.85011 13.1221 8.95443L13.228 9.02095C13.5481 9.24031 13.7793 9.56363 13.8802 9.93421C13.994 10.3523 13.933 10.7976 13.7076 11.1766L13.2889 11.8599L13.2258 11.9563C12.7339 12.6493 11.7788 12.861 11.05 12.4489L10.9636 12.4053C10.8735 12.3658 10.7763 12.3441 10.6877 12.3416C10.4952 12.3407 10.3103 12.4153 10.1741 12.5487C10.038 12.6821 9.96188 12.8633 9.96237 13.0739L9.95722 13.1829C9.88674 14.0263 9.16606 14.6798 8.29774 14.6798H7.51367C6.59408 14.6798 5.8486 13.9495 5.84954 13.0775L5.84415 12.9837C5.83319 12.8914 5.80252 12.8023 5.75026 12.7159C5.65547 12.5536 5.49842 12.4351 5.31402 12.3867C5.12961 12.3384 4.93314 12.3642 4.74296 12.4719L4.62997 12.5272C4.27262 12.6847 3.86954 12.7138 3.49185 12.6086C3.06572 12.4899 2.70542 12.2098 2.49517 11.8379L2.09065 11.1536L2.03681 11.0522C1.66844 10.2904 1.95719 9.37456 2.69003 8.95961L2.75687 8.9186C2.95265 8.78584 3.07004 8.56696 3.07004 8.33288C3.07004 8.07834 2.93143 7.84313 2.68898 7.70548L2.5906 7.64365C1.88324 7.16171 1.66712 6.22599 2.10532 5.48116L2.51741 4.81771C2.97573 4.03837 3.99142 3.76951 4.7726 4.20843L4.85717 4.2526C4.94337 4.29137 5.03702 4.31194 5.12718 4.31289C5.52476 4.31293 5.84867 4.00013 5.85469 3.59919L5.86009 3.47605C5.89265 3.09483 6.06149 2.73656 6.33751 2.46483C6.64893 2.15826 7.0722 1.98591 7.51367 1.98591H8.29755ZM8.29774 2.90478H7.51367C7.32172 2.90478 7.13768 2.97972 7.00228 3.11302C6.88227 3.23116 6.80885 3.38694 6.79597 3.53242L6.78745 3.72593C6.72178 4.56968 6.00223 5.23185 5.12226 5.23174C4.89543 5.22943 4.67181 5.18029 4.44377 5.07704L4.32168 5.01395C3.9738 4.81866 3.53022 4.93608 3.32436 5.28585L2.91226 5.94931C2.72343 6.27039 2.81787 6.67927 3.11026 6.87894L3.27573 6.98161C3.73145 7.2835 4.00791 7.78891 4.00791 8.33288C4.00791 8.86891 3.73917 9.36999 3.27462 9.68454L3.17573 9.74546C2.85022 9.92995 2.72461 10.3284 2.8759 10.6421L2.91162 10.7098L3.311 11.3848C3.40479 11.5506 3.56214 11.6729 3.74825 11.7247C3.9132 11.7707 4.08925 11.7579 4.22659 11.6979L4.29559 11.6648C4.67651 11.4471 5.13043 11.3874 5.55647 11.4991C5.9825 11.6108 6.34534 11.8846 6.56056 12.2533C6.67633 12.4444 6.74959 12.6572 6.77795 12.9017L6.79075 13.1261C6.83023 13.4831 7.13883 13.761 7.51367 13.761H8.29774C8.67685 13.761 8.99177 13.4754 9.02135 13.1256L9.02494 13.0563C9.0228 12.6224 9.19778 12.2057 9.51093 11.8989C9.82408 11.5921 10.2494 11.4207 10.7025 11.4229C10.9249 11.4288 11.1437 11.4776 11.3674 11.5762L11.5679 11.6766C11.8827 11.8119 12.256 11.7132 12.4453 11.4471L12.4913 11.3767L12.9003 10.7089C12.9969 10.5464 13.0235 10.3528 12.974 10.171C12.9301 10.0098 12.8296 9.86926 12.7077 9.78516L12.5349 9.67813C12.2044 9.45932 11.9643 9.13021 11.8608 8.75012C11.747 8.33202 11.808 7.88673 12.0286 7.51578C12.1494 7.30921 12.3154 7.1316 12.5317 6.98435L12.6338 6.9214C12.9587 6.73516 13.0843 6.33678 12.9341 6.02184L12.8892 5.93708L12.8811 5.91929L12.51 5.28765C12.3344 4.98914 11.9691 4.86015 11.6591 4.96206L11.5887 4.98971L11.5232 5.02239C11.1435 5.24153 10.6905 5.3037 10.264 5.1952C9.83746 5.08669 9.47251 4.81643 9.25086 4.4461C9.13508 4.25497 9.06182 4.04222 9.03346 3.79768L9.02513 3.6377C9.03077 3.44522 8.95665 3.25871 8.81966 3.12064C8.68267 2.98257 8.49447 2.90478 8.29774 2.90478ZM7.90857 6.25857C9.07786 6.25857 10.0258 7.18727 10.0258 8.33288C10.0258 9.47848 9.07786 10.4072 7.90857 10.4072C6.73927 10.4072 5.79137 9.47848 5.79137 8.33288C5.79137 7.18727 6.73927 6.25857 7.90857 6.25857ZM7.90857 7.17745C7.25725 7.17745 6.72925 7.69475 6.72925 8.33288C6.72925 8.971 7.25725 9.4883 7.90857 9.4883C8.55989 9.4883 9.08789 8.971 9.08789 8.33288C9.08789 7.69475 8.55989 7.17745 7.90857 7.17745Z" fill="white"/>
</svg>
